<svg width="64" height="48" viewBox="0 0 64 48" fill="none" xmlns="http://www.w3.org/2000/svg">
<rect x="2.5" y="2.5" width="59" height="43" rx="7.5" stroke="black" stroke-width="5"/>
<path d="M11 12L23 24L11 36" stroke="black" stroke-width="5" stroke-linecap="round" stroke-linejoin="round"/>
<path d="M25.984 34.096C25.288 34.096 24.668 33.956 24.124 33.676C23.58 33.388 23.152 32.992 22.84 32.488C22.536 31.984 22.384 31.412 22.384 30.772C22.384 30.124 22.536 29.552 22.84 29.056C23.152 28.552 23.58 28.16 24.124 27.88C24.668 27.592 25.288 27.448 25.984 27.448C26.664 27.448 27.256 27.592 27.76 27.88C28.264 28.16 28.636 28.564 28.876 29.092L27.424 29.872C27.256 29.568 27.044 29.344 26.788 29.2C26.54 29.056 26.268 28.984 25.972 28.984C25.652 28.984 25.364 29.056 25.108 29.2C24.852 29.344 24.648 29.548 24.496 29.812C24.352 30.076 24.28 30.396 24.28 30.772C24.28 31.148 24.352 31.468 24.496 31.732C24.648 31.996 24.852 32.2 25.108 32.344C25.364 32.488 25.652 32.56 25.972 32.56C26.268 32.56 26.54 32.492 26.788 32.356C27.044 32.212 27.256 31.984 27.424 31.672L28.876 32.464C28.636 32.984 28.264 33.388 27.76 33.676C27.256 33.956 26.664 34.096 25.984 34.096ZM32.8838 34.096C32.1958 34.096 31.5838 33.952 31.0478 33.664C30.5198 33.376 30.0998 32.984 29.7878 32.488C29.4838 31.984 29.3318 31.412 29.3318 30.772C29.3318 30.124 29.4838 29.552 29.7878 29.056C30.0998 28.552 30.5198 28.16 31.0478 27.88C31.5838 27.592 32.1958 27.448 32.8838 27.448C33.5638 27.448 34.1718 27.592 34.7078 27.88C35.2438 28.16 35.6638 28.548 35.9678 29.044C36.2718 29.54 36.4238 30.116 36.4238 30.772C36.4238 31.412 36.2718 31.984 35.9678 32.488C35.6638 32.984 35.2438 33.376 34.7078 33.664C34.1718 33.952 33.5638 34.096 32.8838 34.096ZM32.8838 32.56C33.1958 32.56 33.4758 32.488 33.7238 32.344C33.9718 32.2 34.1678 31.996 34.3118 31.732C34.4558 31.46 34.5278 31.14 34.5278 30.772C34.5278 30.396 34.4558 30.076 34.3118 29.812C34.1678 29.548 33.9718 29.344 33.7238 29.2C33.4758 29.056 33.1958 28.984 32.8838 28.984C32.5718 28.984 32.2918 29.056 32.0438 29.2C31.7958 29.344 31.5958 29.548 31.4438 29.812C31.2998 30.076 31.2278 30.396 31.2278 30.772C31.2278 31.14 31.2998 31.46 31.4438 31.732C31.5958 31.996 31.7958 32.2 32.0438 32.344C32.2918 32.488 32.5718 32.56 32.8838 32.56ZM40.3871 34.096C39.7791 34.096 39.2311 33.96 38.7431 33.688C38.2551 33.408 37.8671 33.02 37.5791 32.524C37.2991 32.028 37.1591 31.444 37.1591 30.772C37.1591 30.092 37.2991 29.504 37.5791 29.008C37.8671 28.512 38.2551 28.128 38.7431 27.856C39.2311 27.584 39.7791 27.448 40.3871 27.448C40.9311 27.448 41.4071 27.568 41.8151 27.808C42.2231 28.048 42.5391 28.412 42.7631 28.9C42.9871 29.388 43.0991 30.012 43.0991 30.772C43.0991 31.524 42.9911 32.148 42.7751 32.644C42.5591 33.132 42.2471 33.496 41.8391 33.736C41.4391 33.976 40.9551 34.096 40.3871 34.096ZM40.7111 32.56C41.0151 32.56 41.2911 32.488 41.5391 32.344C41.7871 32.2 41.9831 31.996 42.1271 31.732C42.2791 31.46 42.3551 31.14 42.3551 30.772C42.3551 30.396 42.2791 30.076 42.1271 29.812C41.9831 29.548 41.7871 29.344 41.5391 29.2C41.2911 29.056 41.0151 28.984 40.7111 28.984C40.3991 28.984 40.1191 29.056 39.8711 29.2C39.6231 29.344 39.4231 29.548 39.2711 29.812C39.1271 30.076 39.0551 30.396 39.0551 30.772C39.0551 31.14 39.1271 31.46 39.2711 31.732C39.4231 31.996 39.6231 32.2 39.8711 32.344C40.1191 32.488 40.3991 32.56 40.7111 32.56ZM42.4031 34V32.68L42.4391 30.76L42.3191 28.852V25.096H44.1911V34H42.4031ZM49.0677 34.096C48.3317 34.096 47.6837 33.952 47.1237 33.664C46.5717 33.376 46.1437 32.984 45.8397 32.488C45.5357 31.984 45.3837 31.412 45.3837 30.772C45.3837 30.124 45.5317 29.552 45.8277 29.056C46.1317 28.552 46.5437 28.16 47.0637 27.88C47.5837 27.592 48.1717 27.448 48.8277 27.448C49.4597 27.448 50.0277 27.584 50.5317 27.856C51.0437 28.12 51.4477 28.504 51.7437 29.008C52.0397 29.504 52.1877 30.1 52.1877 30.796C52.1877 30.868 52.1837 30.952 52.1757 31.048C52.1677 31.136 52.1597 31.22 52.1517 31.3H46.9077V30.208H51.1677L50.4477 30.532C50.4477 30.196 50.3797 29.904 50.2437 29.656C50.1077 29.408 49.9197 29.216 49.6797 29.08C49.4397 28.936 49.1597 28.864 48.8397 28.864C48.5197 28.864 48.2357 28.936 47.9877 29.08C47.7477 29.216 47.5597 29.412 47.4237 29.668C47.2877 29.916 47.2197 30.212 47.2197 30.556V30.844C47.2197 31.196 47.2957 31.508 47.4477 31.78C47.6077 32.044 47.8277 32.248 48.1077 32.392C48.3957 32.528 48.7317 32.596 49.1157 32.596C49.4597 32.596 49.7597 32.544 50.0157 32.44C50.2797 32.336 50.5197 32.18 50.7357 31.972L51.7317 33.052C51.4357 33.388 51.0637 33.648 50.6157 33.832C50.1677 34.008 49.6517 34.096 49.0677 34.096Z" fill="black"/>
<path d="M24 37.5H51" stroke="black" stroke-width="5" stroke-linecap="round" stroke-linejoin="round"/>
</svg>
