<svg width="64" height="64" viewBox="0 0 64 64" fill="none" xmlns="http://www.w3.org/2000/svg">
<path d="M5.46088 47V13.4H13.2369V40.664H30.0849V47H5.46088ZM39.7816 33.896C40.8056 33.896 41.7176 34.104 42.5176 34.52C43.3336 34.92 43.9736 35.544 44.4376 36.392C44.9016 37.224 45.1336 38.296 45.1336 39.608V47H41.3896V40.184C41.3896 39.144 41.1576 38.376 40.6936 37.88C40.2456 37.384 39.6056 37.136 38.7736 37.136C38.1816 37.136 37.6456 37.264 37.1656 37.52C36.7016 37.76 36.3336 38.136 36.0616 38.648C35.8056 39.16 35.6776 39.816 35.6776 40.616V47H31.9336V34.088H35.5096V37.664L34.8376 36.584C35.3016 35.72 35.9656 35.056 36.8296 34.592C37.6936 34.128 38.6776 33.896 39.7816 33.896ZM51.5034 44.36L51.5994 39.8L57.6234 34.088H62.0874L56.3034 39.968L54.3594 41.552L51.5034 44.36ZM48.4074 47V29.192H52.1514V47H48.4074ZM58.0314 47L53.6634 41.576L56.0154 38.672L62.5674 47H58.0314Z" fill="black"/>
</svg>
