<svg width="101" height="93" viewBox="0 0 101 93" fill="none" xmlns="http://www.w3.org/2000/svg">
<path d="M48.02 81.3V38.33V35.56C48.02 33.06 46 31.04 43.5 31.04H11.68C10.4 29.27 8.21002 28.21 5.80002 28.53C3.02002 28.9 0.790016 31.19 0.480016 33.98C0.0700158 37.73 2.99002 40.9 6.65002 40.9C8.72002 40.9 10.55 39.89 11.67 38.33H36.2C38.7 38.33 40.72 40.35 40.72 42.85V81.29C38.95 82.57 37.89 84.76 38.21 87.17C38.58 89.95 40.87 92.18 43.66 92.49C47.41 92.9 50.58 89.98 50.58 86.32C50.59 84.25 49.58 82.43 48.02 81.3Z" fill="url(#paint0_linear_80_58)"/>
<path d="M95.66 3.31001C98.16 3.31001 100.18 5.33001 100.18 7.83001V10.6V31.04V33.81C100.18 36.31 98.16 38.33 95.66 38.33H92.89H72.19C69.69 38.33 67.67 40.35 67.67 42.85V60.96C69.22 62.09 70.24 63.92 70.24 65.98C70.24 69.64 67.07 72.57 63.32 72.15C60.53 71.84 58.24 69.62 57.87 66.83C57.55 64.41 58.62 62.23 60.38 60.95V35.55C60.38 33.05 62.4 31.03 64.9 31.03H67.67H88.37C90.87 31.03 92.89 29.01 92.89 26.51V15.11C92.89 12.61 90.87 10.59 88.37 10.59H87.7H60.51H48.02H20.72C19.59 12.14 17.76 13.16 15.7 13.16C12.04 13.16 9.11003 9.99001 9.53003 6.24001C9.84003 3.45001 12.06 1.16001 14.85 0.790011C17.27 0.470011 19.45 1.54001 20.73 3.30001H48.03H60.51H87.7H95.66V3.31001Z" fill="url(#paint1_linear_80_58)"/>
<defs>
<linearGradient id="paint0_linear_80_58" x1="14.2952" y1="49.2445" x2="58.7099" y2="76.4754" gradientUnits="userSpaceOnUse">
<stop offset="0.307292" stop-color="#DF4EEC"/>
<stop offset="1" stop-color="#F55454"/>
</linearGradient>
<linearGradient id="paint1_linear_80_58" x1="34.5482" y1="23.9049" x2="90.1423" y2="79.1717" gradientUnits="userSpaceOnUse">
<stop offset="0.307292" stop-color="#DF4EEC"/>
<stop offset="1" stop-color="#F55454"/>
</linearGradient>
</defs>
</svg>
