<svg width="64" height="64" viewBox="0 0 64 64" fill="none" xmlns="http://www.w3.org/2000/svg">
<path d="M29.4487 13.4H37.2247V47H29.4487V13.4ZM14.1847 47H6.40869V13.4H14.1847V47ZM30.0247 33.224H13.6087V26.648H30.0247V33.224ZM42.9183 31.304V28.088L51.2223 20.888C52.1823 20.056 52.8063 19.384 53.0943 18.872C53.4143 18.36 53.5743 17.88 53.5743 17.432C53.5743 16.792 53.2863 16.264 52.7103 15.848C52.1663 15.4 51.3023 15.176 50.1183 15.176C49.1263 15.176 48.2463 15.352 47.4783 15.704C46.7103 16.056 46.1023 16.568 45.6543 17.24L41.8143 14.936C42.6143 13.752 43.7343 12.808 45.1743 12.104C46.6463 11.368 48.4383 11 50.5503 11C53.1743 11 55.2223 11.56 56.6943 12.68C58.1663 13.8 58.9023 15.256 58.9023 17.048C58.9023 18.008 58.6623 18.952 58.1823 19.88C57.7023 20.776 56.6783 21.896 55.1103 23.24L48.4383 29.048L47.3343 27.272H59.6703V31.304H42.9183Z" fill="black"/>
</svg>
